{
	"asset":{
		"generator":"Khronos glTF Blender I/O v4.2.60",
		"version":"2.0"
	},
	"scene":0,
	"scenes":[
		{
			"name":"Scene",
			"nodes":[
				0
			]
		}
	],
	"nodes":[
		{
			"mesh":0,
			"name":"aipill v12",
			"scale":[
				0.5,
				0.5,
				0.5
			]
		}
	],
	"meshes":[
		{
			"name":"aipill v12.001",
			"primitives":[
				{
					"attributes":{
						"POSITION":0,
						"NORMAL":1
					},
					"indices":2
				}
			]
		}
	],
	"accessors":[
		{
			"bufferView":0,
			"componentType":5126,
			"count":5514,
			"max":[
				87.5000228881836,
				17,
				87.5
			],
			"min":[
				-87.5000228881836,
				-17,
				-87.5
			],
			"type":"VEC3"
		},
		{
			"bufferView":1,
			"componentType":5126,
			"count":5514,
			"type":"VEC3"
		},
		{
			"bufferView":2,
			"componentType":5123,
			"count":33072,
			"type":"SCALAR"
		}
	],
	"bufferViews":[
		{
			"buffer":0,
			"byteLength":66168,
			"byteOffset":0,
			"target":34962
		},
		{
			"buffer":0,
			"byteLength":66168,
			"byteOffset":66168,
			"target":34962
		},
		{
			"buffer":0,
			"byteLength":66144,
			"byteOffset":132336,
			"target":34963
		}
	],
	"buffers":[
		{
			"byteLength":198480,
			"uri":"untitled.bin"
		}
	]
}
